<?xml version="1.0" encoding="utf-8"?>
<!-- Generator: Adobe Illustrator 25.1.0, SVG Export Plug-In . SVG Version: 6.00 Build 0)  -->
<svg version="1.1" id="bf4e4837-25b8-4dca-836a-dd4921ba630c"
	 xmlns="http://www.w3.org/2000/svg" xmlns:xlink="http://www.w3.org/1999/xlink" x="0px" y="0px" viewBox="0 0 819 695.7"
	 style="enable-background:new 0 0 819 695.7;" xml:space="preserve">
<style type="text/css">
	.st0{fill:#F2F2F2;}
	.st1{fill:#FFFFFF;}
	.st2{fill:#3F3D56;}
	.st3{fill:#FFB8B8;}
	.st4{fill:#2F2E41;}
	.st5{fill:#6C63FF;}
	.st6{fill:#01579B;}
	.st7{fill:url(#SVGID_1_);}
	.st8{fill:#54C5F8;}
	.st9{fill:#29B6F6;}
</style>
<path class="st0" d="M177.9,544.1c27.5,17.6,61.8,16.7,94.8,12.6c4.6-0.6,9.2-1.2,13.7-1.9c0,0,0.1,0,0.1,0c0.2,0,0.4-0.1,0.6-0.1
	c0.9-0.1,1.9-0.3,2.8-0.4l-0.2,0.4l-0.6,1.3c0.2-0.4,0.4-0.9,0.7-1.3c0.1-0.1,0.1-0.3,0.2-0.4c7.8-15.4,15.4-31.3,16.7-48.5
	c1.3-17.8-6.1-37.5-22.1-45.4c-2.1-1-4.3-1.8-6.6-2.4c-0.9-0.2-1.9-0.4-2.9-0.6c-10.1-1.5-20.9,1.5-28.4,8.5
	c-9.9,9.2-13.4,24.8-8.4,37.4c-13.9-12.8-12.7-34.9-9.1-53.5c3.6-18.6,8-39.3-2.2-55.3c-5.7-8.9-15-14.1-25.3-15.8
	c-0.3-0.1-0.6-0.1-0.9-0.1c-12-1.8-25.1,1.1-35,8.1c-18.8,13.3-27.6,37.1-29.6,60.1C132.9,483.8,146.7,524.1,177.9,544.1z"/>
<path class="st1" d="M183.3,484.9c1.2,8,3.6,15.9,7,23.2c3.2,6.5,7.3,12.5,12.3,17.8c10.1,10.9,23.1,18.8,37.1,23.8
	c10.7,3.7,21.8,6.1,33,7c4.6-0.6,9.2-1.2,13.7-1.9c0,0,0.1,0,0.1,0c0.2,0,0.4-0.1,0.6-0.1c0.9-0.1,1.9-0.3,2.8-0.4l-0.2,0.4
	l-0.6,1.3c0.2-0.4,0.4-0.9,0.7-1.3c0.1-0.1,0.1-0.3,0.2-0.4c-17.9-16-26.9-39.7-24.2-63.6c1.4-11.7,5.6-22.9,12.2-32.6
	c-0.9-0.2-1.9-0.4-2.9-0.6c-2.5,3.8-4.6,7.9-6.4,12.1c-6.4,15-7.8,31.7-4,47.5c3.5,14.3,11.1,27.4,21.7,37.6c-0.9,0-1.8,0-2.7-0.1
	c-16.6-0.5-33.3-3.2-48.7-9.6c-13-5.5-24.9-13.8-33.8-24.8c-9.8-12-14.6-26.9-16.1-42.2c-1.6-16.4-0.4-33.1,2.5-49.3
	c2.9-16.5,7.9-32.7,14.7-48c0.3-0.7,0-1.6-0.7-1.9c-0.3-0.2-0.6-0.2-0.9-0.1c-0.3,0.1-0.6,0.3-0.7,0.7c-0.8,1.9-1.7,3.8-2.5,5.7
	c-6.6,15.9-11.2,32.7-13.6,49.7C181.5,451.2,180.7,468.4,183.3,484.9z"/>
<path id="fe7ea4cb-bc3a-4b8d-a4ea-d66dad23bcdf" class="st2" d="M510.2,206.9h-2.5v-69.6c0-22.3-18-40.3-40.3-40.3H319.9
	c-22.3,0-40.3,18-40.3,40.3v382c0,22.3,18,40.3,40.3,40.3h147.5c22.3,0,40.3-18,40.3-40.3V256.5h2.5L510.2,206.9z"/>
<path id="eacd08e9-88f4-437e-9f6d-ef6f76b30d28" class="st1" d="M469,107.5h-19.3c3,7.3-0.5,15.7-7.8,18.6c-1.7,0.7-3.5,1.1-5.4,1.1
	H352c-7.9,0-14.3-6.4-14.3-14.3c0-1.9,0.4-3.7,1.1-5.4h-18c-16.6,0-30.1,13.5-30.1,30.1l0,0V519c0,16.6,13.5,30.1,30.1,30.1H469
	c16.6,0,30.1-13.5,30.1-30.1l0,0V137.6C499.1,121,485.6,107.5,469,107.5L469,107.5z"/>
<path class="st0" d="M662.1,551.6c-10.7,7.7-24.5,8.1-37.9,7.1c-1.9-0.1-3.7-0.3-5.6-0.5c0,0,0,0,0,0c-0.1,0-0.2,0-0.3,0
	c-0.4,0-0.8-0.1-1.1-0.1l0.1,0.2l0.3,0.5c-0.1-0.2-0.2-0.3-0.3-0.5c0-0.1-0.1-0.1-0.1-0.2c-3.5-6-6.9-12.3-7.8-19.2
	c-0.9-7.2,1.6-15.3,7.9-18.8c0.8-0.5,1.7-0.8,2.6-1.1c0.4-0.1,0.8-0.2,1.1-0.3c7.3-1.6,14.6,3,16.2,10.3c0.5,2.4,0.4,5-0.4,7.4
	c5.3-5.5,4.3-14.4,2.5-21.8c-1.8-7.4-4.1-15.7-0.3-22.3c2.1-3.7,5.8-6,9.9-6.9c0.1,0,0.3-0.1,0.4-0.1c4.9-1,10-0.1,14.3,2.5
	c7.9,5,11.9,14.4,13.2,23.6C679,526.3,674.3,542.8,662.1,551.6z"/>
<path class="st1" d="M658.7,527.8c-0.3,3.3-1.1,6.5-2.3,9.5c-1.1,2.7-2.7,5.2-4.6,7.4c-3.9,4.6-8.9,8.1-14.4,10.4
	c-4.2,1.7-8.6,2.9-13.2,3.5c-1.9-0.1-3.7-0.3-5.6-0.5c0,0,0,0,0,0c-0.1,0-0.2,0-0.3,0c-0.4,0-0.8-0.1-1.1-0.1l0.1,0.2l0.3,0.5
	c-0.1-0.2-0.2-0.3-0.3-0.5c0-0.1-0.1-0.1-0.1-0.2c6.9-6.8,10-16.6,8.4-26.2c-0.8-4.7-2.8-9.1-5.6-12.9c0.4-0.1,0.8-0.2,1.1-0.3
	c1.1,1.5,2,3.1,2.9,4.7c2.9,5.9,3.8,12.6,2.6,19.1c-1.1,5.9-3.9,11.3-7.9,15.6c0.4,0,0.7-0.1,1.1-0.1c6.7-0.6,13.4-2,19.4-4.9
	c5.2-2.5,9.7-6.1,13.1-10.7c3.7-5.1,5.3-11.2,5.6-17.3c0.2-6.7-0.5-13.3-2.1-19.8c-1.5-6.6-3.9-13-7-19c-0.1-0.3,0-0.6,0.2-0.8
	c0.1-0.1,0.2-0.1,0.4-0.1c0.1,0,0.2,0.1,0.3,0.3c0.4,0.7,0.8,1.5,1.1,2.2c3,6.3,5.2,12.9,6.6,19.8
	C658.7,514.2,659.4,521.1,658.7,527.8z"/>
<path class="st2" d="M676.9,559.6H133.5c-0.4,0-0.7-0.3-0.7-0.7s0.3-0.7,0.7-0.7h543.4c0.4,0,0.7,0.3,0.7,0.7
	S677.3,559.6,676.9,559.6z"/>
<polygon class="st3" points="558.2,552.1 550.1,552.1 546.2,520.7 558.3,520.7 "/>
<path class="st4" d="M544.3,549.8H560l0,0v9.9l0,0h-25.6l0,0l0,0C534.4,554.2,538.8,549.8,544.3,549.8z"/>
<polygon class="st3" points="588.8,552.1 580.7,552.1 576.8,520.7 588.8,520.7 "/>
<path class="st4" d="M574.9,549.8h15.7l0,0v9.9l0,0H565l0,0l0,0C565,554.2,569.4,549.8,574.9,549.8z"/>
<path class="st3" d="M587.8,458.4c-3.3-2.1-4.3-6.6-2.1-9.9c0.2-0.4,0.5-0.7,0.8-1l-5.4-76.2l15.5,1.5l0.4,74.6
	c2.7,2.9,2.6,7.4-0.3,10.2C594.3,459.9,590.6,460.3,587.8,458.4L587.8,458.4z"/>
<path class="st4" d="M557.9,536.3l-9-0.4c-1.6-0.1-2.8-1.4-2.9-3l-0.6-90.8c0-1.7,1.3-3,3-3c0.2,0,0.3,0,0.4,0l35.9,5.2
	c1.5,0.2,2.6,1.5,2.6,2.9l4.6,84.2c0,1.7-1.3,3-3,3c0,0,0,0,0,0h-9.7c-1.5,0-2.7-1.1-3-2.5l-6-38c-0.2-1.3-1.4-2.1-2.7-1.9
	c-1,0.2-1.8,1-2,2l-4.7,39.6c-0.2,1.5-1.5,2.6-3,2.6C558,536.3,557.9,536.3,557.9,536.3z"/>
<path class="st5" d="M564.2,447.2c-7.9-4.4-14.1-5.6-17.1-5.8c-0.8-0.1-1.5-0.5-2-1.1c-0.5-0.6-0.7-1.5-0.6-2.3l8.6-63.9
	c1-7.6,5.9-14.1,12.9-17.3c6.8-3.1,14.7-2.5,20.9,1.6c0.3,0.2,0.6,0.4,0.9,0.6c7.2,5.3,10.5,14.3,8.4,23c-5.3,21.6-7.1,57-7.4,63.8
	c0,1.2-0.8,2.2-1.9,2.7c-3.2,1.2-6.7,1.8-10.1,1.8C572.3,450.4,568,449.3,564.2,447.2z"/>
<path class="st5" d="M584.6,397c-0.7-0.5-1.2-1.4-1.2-2.3l-1.1-20.5c-0.3-4.5,3.2-8.4,7.8-8.7c3.9-0.2,7.4,2.3,8.4,6.1l5,18.4
	c0.4,1.6-0.5,3.2-2.1,3.7l-14.2,3.8C586.3,397.7,585.3,397.5,584.6,397z"/>
<circle class="st3" cx="571.4" cy="331.8" r="16.3"/>
<path class="st3" d="M540.7,396.1c-1.9,0-3.7-0.6-5.1-1.8l-27.8-21.9c-0.2,0.1-0.5,0.1-0.7,0.2c-2,0.5-4.2,0.1-5.9-1.1
	c-1.7-1.2-2.8-3.1-3.1-5.1c-0.5-4,2.4-7.6,6.4-8.1c3.7-0.4,7.1,2,8,5.6l0,0c0.1,0.3,0.1,0.6,0.2,1l28.3,16.3l7-4l7.8,10.2l-10.3,7.3
	C544,395.6,542.4,396.1,540.7,396.1z"/>
<path class="st5" d="M541.9,380.1c-0.1-0.9,0.2-1.8,0.9-2.4l14.5-14.5c3.2-3.2,8.4-3.2,11.7,0c2.8,2.8,3.2,7.1,1.1,10.3l-10.4,16
	c-0.9,1.4-2.8,1.8-4.1,0.9l-12.3-8C542.5,381.8,542,381,541.9,380.1z"/>
<path class="st4" d="M576,347.1c1,1.1,2.6,1.2,3.7,0.3c0,0,0,0,0.1,0c3.6-2.9,6.5-6.7,8.4-11c2.1-5.1,2.4-11.2,0-16
	c-2-4-5.7-6.6-9.4-8.7c-1.4-0.9-2.9-1.5-4.6-1.9c-1.6-0.4-3.4,0-4.8,0.9c-1.5,1.1-2.2,3-1.9,4.8c-1.7-2.2-3.9-3.9-6.5-4.9
	c-1.6-0.7-3.4-0.8-5-0.3c-2.4,0.8-4.1,3.2-5.1,5.7c-0.8,2-1.1,4.1-0.8,6.2c0.2,2,1.2,3.9,2.8,5.1c1.9,1.3,4.4,1.2,6.6,0.6
	c2.2-0.6,4.4-1.6,6.7-1.9c2.3-0.3,4.8,0.3,6.1,2.3c1,1.4,1.2,3.3,1.4,5.1l1,9.3c0.1,1.3,0.4,2.6,0.8,3.9
	C575.7,346.8,575.8,347,576,347.1z"/>
<g>
	<path class="st2" d="M317.3,411.4h22.5v4.4h-18v13.3h16.2v4.4h-16.2v16.9h-4.6L317.3,411.4z"/>
	<path class="st2" d="M345.3,411.4h4.6v39h-4.6V411.4z"/>
	<path class="st2" d="M359.2,448.3c-1.8-2-2.6-4.7-2.6-8.2v-17.5h4.6v16.8c0,2.6,0.6,4.6,1.8,5.8c1.3,1.3,3,1.9,4.8,1.9
		c1.5,0,2.9-0.4,4.2-1.3c1.2-0.8,2.2-2,2.8-3.3c0.7-1.3,1-2.8,1-4.2v-15.7h4.6v27.8H376v-4h-0.2c-0.9,1.5-2.1,2.7-3.6,3.5
		c-1.6,0.9-3.5,1.4-5.3,1.4C363.5,451.2,360.9,450.2,359.2,448.3z"/>
	<path class="st2" d="M395.1,450.7c-0.9-0.3-1.7-0.8-2.4-1.5c-0.7-0.7-1.3-1.5-1.6-2.4c-0.4-1.1-0.6-2.2-0.5-3.4v-16.6h-4.8v-4.2
		h4.8v-7.8h4.6v7.8h6.8v4.2h-6.8v15.5c-0.1,1.2,0.2,2.4,0.9,3.5c0.8,0.8,1.9,1.3,3,1.2c1.1,0,2.1-0.3,3-0.9v4.5
		c-0.5,0.2-1.1,0.4-1.7,0.5c-0.7,0.1-1.4,0.2-2.2,0.2C397.2,451.2,396.1,451,395.1,450.7z"/>
	<path class="st2" d="M414.7,450.7c-0.9-0.3-1.7-0.8-2.4-1.5c-0.7-0.7-1.3-1.5-1.6-2.4c-0.4-1.1-0.6-2.2-0.5-3.4v-16.6h-4.8v-4.2
		h4.8v-7.8h4.6v7.8h6.8v4.2h-6.7v15.5c-0.1,1.2,0.2,2.4,0.9,3.5c0.8,0.8,1.9,1.3,3,1.2c1.1,0,2.1-0.3,3-0.9v4.5
		c-0.5,0.2-1.1,0.4-1.7,0.5c-0.7,0.1-1.4,0.2-2.2,0.2C416.8,451.2,415.7,451,414.7,450.7z"/>
	<path class="st2" d="M431.2,449.3c-2.1-1.3-3.8-3.1-4.9-5.3c-1.2-2.3-1.8-4.9-1.8-7.5c0-2.6,0.5-5.1,1.7-7.4
		c1.1-2.2,2.7-4.1,4.7-5.4c2.1-1.4,4.6-2.1,7.1-2c2.5-0.1,4.9,0.6,7.1,1.8c2,1.2,3.6,3,4.6,5c1.1,2.3,1.7,4.8,1.6,7.4
		c0,0.5,0,1-0.2,1.4h-21.9c0,1.9,0.6,3.7,1.5,5.3c0.8,1.4,2,2.5,3.5,3.3c1.3,0.7,2.9,1.1,4.4,1.1c3.6,0,6.3-1.7,8.2-5l3.9,1.9
		c-1.1,2.2-2.8,4-4.9,5.3C441.2,451.9,435.7,451.9,431.2,449.3L431.2,449.3z M446.3,433.5c-0.1-1.2-0.4-2.4-1-3.5
		c-0.6-1.2-1.6-2.2-2.7-2.9c-1.4-0.8-3.1-1.3-4.7-1.2c-2-0.1-4,0.7-5.5,2.1c-1.5,1.5-2.6,3.4-3,5.5H446.3z"/>
	<path class="st2" d="M456.6,422.6h4.4v4.5h0.2c0.6-1.6,1.7-2.9,3.2-3.8c1.4-1,3.2-1.5,4.9-1.5c1.1,0,2.2,0.2,3.3,0.6v5
		c-1.2-0.6-2.6-0.9-3.9-0.9c-1.3,0-2.6,0.4-3.7,1.1c-1.1,0.8-2.1,1.8-2.7,3.1c-0.7,1.3-1,2.7-1,4.2v15.5h-4.6L456.6,422.6
		L456.6,422.6z"/>
</g>
<polygon class="st6" points="409.3,321.7 469.9,382.5 412.7,381.9 391.4,360.6 "/>
<linearGradient id="SVGID_1_" gradientUnits="userSpaceOnUse" x1="398.6407" y1="332.9809" x2="419.8401" y2="354.1804" gradientTransform="matrix(1 0 0 -1 0 698)">
	<stop  offset="0" style="stop-color:#1A237E;stop-opacity:0.4"/>
	<stop  offset="1" style="stop-color:#1A237E;stop-opacity:0"/>
</linearGradient>
<polygon class="st7" points="433.9,346.4 391.4,360.6 417.4,329.7 "/>
<polygon class="st8" points="469.5,196.7 348.4,317.8 319.9,289.3 412.5,196.7 "/>
<polygon class="st8" points="362.5,332.3 412.4,282.5 469.6,282.5 391.1,360.3 "/>
<polygon class="st9" points="391.1,303.5 419.6,332 391.4,360.6 362.8,332.7 "/>
</svg>
