<?xml version="1.0" encoding="utf-8"?>
<!-- Generator: Adobe Illustrator 25.1.0, SVG Export Plug-In . SVG Version: 6.00 Build 0)  -->
<svg version="1.1" id="b254d52b-39df-4e13-bb41-4501a5520a91"
	 xmlns="http://www.w3.org/2000/svg" xmlns:xlink="http://www.w3.org/1999/xlink" x="0px" y="0px" viewBox="0 0 801.2 580.5"
	 style="enable-background:new 0 0 801.2 580.5;" xml:space="preserve">
<style type="text/css">
	.st0{fill:#6C63FF;}
	.st1{fill:#FFFFFF;}
	.st2{fill:#3F3D56;}
	.st3{fill:#CACACA;}
	.st4{fill:#A0616A;}
	.st5{fill:#2F2E41;}
	.st6{fill:#E6E6E6;}
	.st7{fill:#F0F0F0;}
</style>
<polygon class="st0" points="550.3,89.2 559.4,73.5 541.3,73.5 550.3,89.2 559.4,73.5 541.3,73.5 "/>
<path class="st1" d="M678.2,109.4H455.9c-2.9,0-5.2,2.3-5.2,5.2v177.7c0,2.9,2.3,5.2,5.2,5.2h222.3c2.9,0,5.2-2.3,5.2-5.2V114.7
	C683.5,111.8,681.1,109.4,678.2,109.4z"/>
<path class="st2" d="M678.2,109.4H455.9c-2.9,0-5.2,2.3-5.2,5.2v177.7c0,2.9,2.3,5.2,5.2,5.2h222.3c2.9,0,5.2-2.3,5.2-5.2V114.7
	C683.5,111.8,681.1,109.4,678.2,109.4z M681.4,292.4c0,1.7-1.4,3.1-3.1,3.1H455.9c-1.7,0-3.1-1.4-3.1-3.1V114.7
	c0-1.7,1.4-3.1,3.1-3.1h222.3c1.7,0,3.1,1.4,3.1,3.1L681.4,292.4z"/>
<path id="bdfa4fc8-4cb4-40eb-9316-b2c126b9d895" class="st3" d="M515,130.7c-2.3,0-4.1,1.9-4.1,4.2c0,2.2,1.8,4,4.1,4.1H619
	c2.3,0,4.2-1.8,4.2-4.1c0-2.3-1.8-4.2-4.1-4.2l0,0l0,0c0,0-0.1,0-0.1,0H515z"/>
<path id="ba5c2980-9af9-481d-8c77-79bdfacc1013" class="st3" d="M515,164.4c-2.3,0-4.1,1.9-4.1,4.2c0,2.2,1.8,4,4.1,4.1H619
	c2.3,0,4.2-1.8,4.2-4.1c0-2.3-1.8-4.2-4.1-4.2l0,0c0,0-0.1,0-0.1,0H515z"/>
<path id="b2c440dc-2978-421d-842d-61ca392e7a22" class="st3" d="M515,198c-2.3,0-4.1,1.9-4.1,4.2c0,2.2,1.8,4,4.1,4.1H619
	c2.3,0,4.2-1.8,4.2-4.1c0-2.3-1.8-4.2-4.1-4.2l0,0l0,0c0,0-0.1,0-0.1,0H515z"/>
<path id="fd456212-3b0e-49ae-973c-3928d43fcb5e" class="st3" d="M515,231.7c-2.3,0-4.1,1.9-4.1,4.2c0,2.2,1.8,4,4.1,4.1H619
	c2.3,0,4.2-1.8,4.2-4.1c0-2.3-1.8-4.2-4.1-4.2l0,0l0,0c0,0-0.1,0-0.1,0H515z"/>
<path id="b6f2880d-9a57-4c5b-8223-e7bf3dd6e24d" class="st3" d="M515,265.3c-2.3,0-4.1,1.9-4.1,4.2c0,2.2,1.8,4,4.1,4.1H619
	c2.3,0,4.2-1.8,4.2-4.1c0-2.3-1.8-4.2-4.1-4.2l0,0c0,0-0.1,0-0.1,0H515z"/>
<path class="st3" d="M554.5,98.2H101.1c-0.4,0-0.7-0.3-0.7-0.7s0.3-0.7,0.7-0.7h453.4c0.4,0,0.7,0.3,0.7,0.7S554.9,98.2,554.5,98.2z
	"/>
<circle class="st2" cx="117.4" cy="80" r="8"/>
<circle class="st2" cx="145.1" cy="80" r="8"/>
<circle class="st2" cx="172.8" cy="80" r="8"/>
<path class="st0" d="M523.6,88.4h-59c-4.6,0-8.4-3.7-8.4-8.4c0-4.6,3.7-8.4,8.4-8.4h59c4.6,0,8.4,3.7,8.4,8.4
	C531.9,84.7,528.2,88.4,523.6,88.4L523.6,88.4z"/>
<path class="st4" d="M200,304.5l6.6-60.2l10.4-42.3l-19.4-6l-10.2,47.6l3.4,58.6c-4.6,1.6-7,6.5-5.4,11.1c1.6,4.6,6.5,7,11.1,5.4
	c4.6-1.6,7-6.5,5.4-11.1C201.5,306.4,200.9,305.3,200,304.5L200,304.5z"/>
<path class="st5" d="M183.8,311.1c1.4-20,10.9-39.2,27.9-57.9L257,256l0.7,34.8l36.2,192.4l-12.5,0.7l-59.2-124.8l-27.9,124.1
	l-12.5,0.7L183.8,311.1z"/>
<circle class="st4" cx="229.8" cy="150" r="21.6"/>
<path class="st6" d="M203.2,237.3c-6.9-13.3-9.6-28.3-7.8-43.1c0.9-7.2,5.9-13.2,12.8-15.5l0,0l25.1,0.7l18.1,20.2
	c8.7,10.6,14.1,21.5,9.8,33.5l-4.2,26.5l-46.7-2.8L203.2,237.3z"/>
<path class="st5" d="M172.8,208.3L172.8,208.3c10.1-4.4,10.3-13.4,6.4-24.5c-5.2-10.4-1.4-20.3,7.7-29.7c4.8-4.2,6.6-9.2,5.9-14.9
	c-0.7-5.1,1.1-10.3,4.7-13.9c3.6-3.4,20.2-5.6,25.4-5.7l6.8-0.2c0.3,0,0.7,0,1,0l0,0c11.4,0.2,20.5,9.5,20.3,20.9c0,0,0,0,0,0l0,0
	c-10.9-2.6-12.2,0.5-18.2,7.4c-4.3,5.2-6.5,11.9-6.1,18.6c0.4,9.1-5.9,23.9-11.5,38.2c6.6,11.5-1.6,20.6-11,28.8h-0.5
	C190.8,233.2,169.5,220.9,172.8,208.3z"/>
<ellipse class="st4" cx="229.4" cy="154.1" rx="2.8" ry="5.2"/>
<path class="st4" d="M270.5,314.6L254.9,256l-5.6-43.2l-20.2,1.4l7.7,48.1l24.3,53.4c-3.7,3.1-4.2,8.6-1.1,12.3
	c3.1,3.7,8.6,4.2,12.3,1.1c3.7-3.1,4.2-8.6,1.1-12.3C272.6,315.9,271.6,315.1,270.5,314.6L270.5,314.6z"/>
<path class="st6" d="M221.7,194c0-0.3,0-0.6,0-0.9c0.4-7.9,7.1-14.1,15.1-13.7c0,0,0,0,0,0l0,0c7.8,0.4,13.8,6.8,13.7,14.6l2.3,26.5
	c-8.5-6.4-17.1-5.9-25.8,0.7L221.7,194z"/>
<path class="st5" d="M280.4,482.4l17.6,0h0c6.2,0,11.2,5,11.2,11.2v0.4l-28.8,0L280.4,482.4z"/>
<path class="st5" d="M181.4,482.4l17.6,0h0c6.2,0,11.2,5,11.2,11.2v0.4l-28.8,0L181.4,482.4z"/>
<path class="st7" d="M157,466.2l2.7-6.6c3.2-0.9,6.5-1.6,9.8-2.1l-0.2,3.2l1.4-3.4c4.1-0.6,6.9-0.7,6.9-0.7s-5.5,13.3-14.6,22.8
	l-9.1,0.3l6.8,1.9c-1.1,1-2.3,2-3.5,2.8c-12.5,8.8-25.5,11.8-29,6.7s3.7-16.2,16.2-25c4-2.7,8.5-4.7,13.1-6.1L157,466.2z"/>
<path class="st7" d="M133.4,436.1l-3.4-9.7c2.7-4.1,5.6-7.9,8.7-11.7l2.8,3.7l-1.7-5c3.9-4.6,6.8-7.3,6.8-7.3s6.7,19.8,5.9,38.8
	L143,454l9.2-4.3c-0.2,2.2-0.6,4.3-1.1,6.5c-5.2,21.5-16.5,37.2-25.2,35.1c-8.7-2.1-11.4-21.2-6.2-42.7c1.8-6.8,4.7-13.3,8.5-19.2
	L133.4,436.1z"/>
<path class="st3" d="M378.4,494.2H101.1c-0.4,0-0.7-0.3-0.7-0.7c0-0.4,0.3-0.7,0.7-0.7h277.3c0.4,0,0.7,0.3,0.7,0.7
	C379.1,493.8,378.8,494.2,378.4,494.2z"/>
</svg>
