<?xml version="1.0" encoding="utf-8"?>
<!-- Generator: Adobe Illustrator 25.1.0, SVG Export Plug-In . SVG Version: 6.00 Build 0)  -->
<svg version="1.1" id="aadef149-4ba5-4382-9e09-7df651a328a5"
	 xmlns="http://www.w3.org/2000/svg" xmlns:xlink="http://www.w3.org/1999/xlink" x="0px" y="0px" viewBox="0 0 704 745.2"
	 style="enable-background:new 0 0 704 745.2;" xml:space="preserve">
<style type="text/css">
	.st0{fill:#6C63FF;}
	.st1{fill:#3F3D56;}
	.st2{fill:#FFFFFF;}
	.st3{fill:#E6E6E6;}
	.st4{fill:#2F2E41;}
	.st5{fill:#FFB8B8;}
	.st6{opacity:0.2;enable-background:new    ;}
</style>
<path class="st0" d="M158.9,524.4l-5.9-23.1c-10.4-4.4-21-8.2-31.8-11.4l-0.7,10.7l-3-11.8c-13.4-3.8-22.5-5.5-22.5-5.5
	s12.3,46.9,38.2,82.7l30.1,5.3l-23.4,3.4c3.3,3.9,6.7,7.6,10.5,11.1c37.6,34.9,79.5,50.9,93.6,35.8c14.1-15.2-5-55.7-42.6-90.6
	c-11.7-10.8-26.3-19.5-41-26.3L158.9,524.4z"/>
<path class="st0" d="M214.6,499.3l6.9-22.8c-6.6-9.1-13.7-17.9-21.3-26.2l-6.2,8.8l3.5-11.7c-9.5-10.2-16.4-16.4-16.4-16.4
	s-13.7,46.5-10.1,90.5l23.1,20.1l-21.8-9.2c0.8,5,1.8,10,3.2,14.9c14.2,49.3,41.7,84.7,61.6,79c19.9-5.7,24.5-50.3,10.4-99.6
	c-4.4-15.3-12.4-30.3-21.5-43.7L214.6,499.3z"/>
<ellipse class="st1" cx="337.3" cy="624.5" rx="245.9" ry="12.6"/>
<path class="st1" d="M480.9,237.4h-2.8v-76.5c0-24.5-19.8-44.3-44.3-44.3c0,0,0,0,0,0H271.7c-24.5,0-44.3,19.8-44.3,44.3
	c0,0,0,0,0,0v419.8c0,24.5,19.8,44.3,44.3,44.3c0,0,0,0,0,0h162.1c24.5,0,44.3-19.8,44.3-44.3c0,0,0,0,0,0V291.8h2.8L480.9,237.4z"
	/>
<path class="st2" d="M468.7,161.2v419.2c0,18.3-14.8,33.1-33.1,33.1H272.7c-18.3,0-33.1-14.8-33.1-33.1V161.2
	c0-18.3,14.8-33.1,33.1-33.1h19.8c-3.3,8,0.6,17.2,8.6,20.5c1.9,0.8,3.9,1.2,5.9,1.2h92.9c8.7,0,15.7-7.1,15.7-15.7
	c0-2-0.4-4-1.2-5.9h21.2C453.9,128.1,468.7,142.9,468.7,161.2z"/>
<path class="st3" d="M468.7,490.3v90.1c0,18.3-14.8,33.1-33.1,33.1H272.7c-18.3,0-33.1-14.8-33.1-33.1v-81.3
	c55.8-65.5,154.1-73.3,219.6-17.6C462.5,484.3,465.6,487.2,468.7,490.3z"/>
<polygon class="st3" points="316.4,473.6 309.8,473.6 312,345 314.2,345 "/>
<path class="st3" d="M321.9,264.1l10.6-16.4c-3.2-8.7-6.8-17.2-10.9-25.5l-6.9,5.6l5.4-8.4c-5.2-10.2-9.3-16.6-9.3-16.6
	s-21.3,33.6-28.4,69.1l13.6,21.1L281,280.7c-0.5,4.1-0.8,8.3-0.8,12.5c0,42.1,13.8,76.3,30.7,76.3s30.7-34.1,30.7-76.3
	c0-13.1-3-26.7-7-39.3L321.9,264.1z"/>
<polygon class="st3" points="278.2,482.7 275,482.7 276.1,420.3 277.2,420.3 "/>
<path class="st3" d="M280.9,381.1l5.2-8c-1.5-4.2-3.3-8.4-5.3-12.4l-3.3,2.7l2.6-4.1c-2.5-5-4.5-8.1-4.5-8.1s-10.3,16.3-13.8,33.5
	l6.6,10.2l-7.3-5.9c-0.3,2-0.4,4-0.4,6.1c0,20.4,6.7,37,14.9,37s14.9-16.6,14.9-37c0-6.3-1.4-13-3.4-19.1L280.9,381.1z"/>
<polygon class="st3" points="361.3,482.7 358.1,482.7 359.2,420.3 360.3,420.3 "/>
<path class="st3" d="M364,381.1l5.2-8c-1.5-4.2-3.3-8.4-5.3-12.4l-3.3,2.7l2.6-4.1c-2.5-5-4.5-8.1-4.5-8.1s-10.3,16.3-13.8,33.5
	l6.6,10.2l-7.3-5.9c-0.3,2-0.4,4-0.4,6.1c0,20.4,6.7,37,14.9,37c8.2,0,14.9-16.6,14.9-37c0-6.3-1.4-13-3.4-19.1L364,381.1z"/>
<circle class="st3" cx="275.8" cy="246.6" r="29.3"/>
<polygon class="st4" points="381.9,280.1 435.4,281.5 442.6,217.6 381.9,217.6 "/>
<path class="st5" d="M368.5,230.1l-14.8-56.6c0,0,4.1-27.2,14-26.7c9.9,0.4-2.6,26.6-2.6,26.6l16.7,48.9L368.5,230.1z"/>
<path class="st4" d="M397.5,372l2.3,23.1c0,0-72.9,49.7-72.9,70.5c0,20.8-2.3,86.7-2.3,86.7l26.6,1.2l2.3-31.2
	c0,0,5.8-34.7,2.3-47.4L394,446c0,0-11.6,13.9-9.3,38.2c2.3,24.3-3.5,71.7-3.5,71.7l27.8,2.3c0,0,3.5-25.4,4.6-27.8
	c1.2-2.3,6.9-43.9,1.2-55.5l47.4-55.5c0,0,16.2-20.8,0-41.6l-9.3-4.6L397.5,372z"/>
<path class="st4" d="M325.8,547.8l-2.3,15l-15,35.9c0,0-25.4,12.7-6.9,15c18.5,2.3,25.4-2.3,28.9-8.1c3.5-5.8,10.4-15,10.4-15
	l-1.2,24.3h5.8l9.5-33.2c1.9-6.4,0.6-13.4-3.6-18.7c0-0.1-0.1-0.1-0.1-0.2c-4.6-5.8-2.3-13.9-2.3-13.9L325.8,547.8z"/>
<path class="st4" d="M383.6,547.8l-2.3,15l-15,35.9c0,0-25.4,12.7-6.9,15c18.5,2.3,25.4-2.3,28.9-8.1c3.5-5.8,10.4-15,10.4-15
	l-1.2,24.3h5.8l9.5-33.2c1.9-6.4,0.6-13.4-3.6-18.7c0-0.1-0.1-0.1-0.1-0.2c-4.6-5.8-2.3-13.9-2.3-13.9L383.6,547.8z"/>
<circle class="st5" cx="411.4" cy="229.8" r="23.1"/>
<path class="st5" d="M410.2,249.4l10.4,24.3l20.8-16.2c0,0-12.7-17.3-12.7-19.7L410.2,249.4z"/>
<path class="st0" d="M412.5,263.3l4.9,3c0,0,15.9-8.5,20-14.4c0,0,14.4-4.8,20.2,6.8c5.8,11.6-3.5,91.4-3.5,91.4s5.8,8.1,4.6,11.6
	c-1.2,3.5,3.5,9.3,3.5,9.3v6.9c0,0-65.9,1.2-65.9-4.6v-18.5l-6.9-2.3c0,0-6.9,15-9.3,13.9c-2.3-1.2-13.9-10.4-13.9-10.4
	s18.5-61.3,28.9-71.7l12.7-22L412.5,263.3z"/>
<path class="st0" d="M410.2,264.5c0,0-2.3-4.6-5.8-5.8c-3.5-1.2-20.8-25.4-20.8-25.4l2.3-12.7l-23.1-3.5c0,0,1.2,12.7,5.8,20.8
	c4.6,8.1,30.1,49.7,30.1,49.7l12.7-23.1L410.2,264.5z"/>
<path class="st5" d="M428.1,356.4L414.2,398c0,0-28.9,32.4-12.7,32.4c16.2,0,24.3-28.9,24.3-28.9l19.7-41.6L428.1,356.4z"/>
<path class="st4" d="M383.6,230.1c18.5-7.4,36.8-9,54.6,0v-15c0-5.4-4.4-9.7-9.7-9.7h0h-37.1c-4.3,0-7.7,3.4-7.7,7.7c0,0,0,0,0,0
	V230.1z"/>
<path class="st0" d="M442.6,262.2c0,0,10.6-8.9,16.3,1.3c5.7,10.3,2.2,54.2,1.1,60s-9.3,41.6-9.3,41.6l-27.8-5.8
	c0,0-2.3-16.2,4.6-15L442.6,262.2z"/>
<path class="st4" d="M454.1,252.2c-5.2-2.9-7.7-9.3-7.8-15.3c-0.2-6,1.3-11.8,1.4-17.8c0.1-1.2,0-2.4-0.3-3.6
	c-0.4-1.5-1.1-2.9-2-4.1c-6.8-10.4-18.6-17.7-31-17.8c-1.8,0-3.6,0.3-5.2,1c-1.3,0.5-1.7,0.5-2,2c-2.9-1-6.1-0.9-9,0.3
	c-2.8,1.2-5.5,2.7-7.9,4.7c-1.4,1.1-2.7,2.2-4,3.5c-6.6,6.8-8.1,17.3-6.2,26.6c0.6,3-2.4,5.9-4.8,7.8s-5.3,3.5-6.5,6.4
	c-1.2,2.7-0.5,5.8-0.8,8.8c-0.5,5.7-4.2,10.6-9.6,12.6c1.1,1.3,2.8,1.9,4.5,1.6c1.7-0.4,3.3-1.1,4.6-2.2c5.1-3.8,8.7-9.2,10.3-15.3
	c0.7,3.3,0.4,6.7,0.4,10c0.1,3.7-0.6,7.5-2,11c-1.4,3.5-4,6.4-7.4,8.1c3.2,1.6,6.8,0.4,9.5-1.9c2.7-2.3,4.3-5.7,5.5-9.1
	c1.8-5.6,2.6-11.4,2.2-17.2c3,5,4.1,11,3.1,16.8c-1,5.9-4.1,11.2-8.7,15.1c8-0.1,15.8-2,22.9-5.8c1.8-0.8,3.4-2.1,4.7-3.6
	c2.3-3.2,1.7-7.4,1.1-11.3c-0.5-3,3.3-7.4,1.1-9.6c-0.6-0.6-1.5-1-2.4-1c-6.6-0.6-12.7-4-16.2-9.6c-2.5-3.9-4.1-8.4-4.1-12.6
	c0-12.7,10.3-23,23-23c12.7,0,23,10.3,23,23c0,2.3-0.3,4.6-1,6.8c-0.8,2.5-1.3,5.2-1.7,7.8c-0.4,3.1-1,6.1-1.9,9.1
	c-1.6,5.7-4.4,11.5-9.6,14.5c1.7,0.9,3.7,1,5.7,1.2c6.5,0.7,13.2,0.6,19.1-2.3C449.9,264.7,454.5,258.7,454.1,252.2z"/>
<polygon class="st6" points="433.9,292.8 427.9,342.5 428.1,295.1 "/>
<polygon class="st6" points="453.7,351.5 451.3,366.8 457,369.1 "/>
</svg>
